<?xml version="1.0" encoding="UTF-8"?>
<svg width="61px" height="67px" viewBox="0 0 61 67" version="1.1" xmlns="http://www.w3.org/2000/svg" xmlns:xlink="http://www.w3.org/1999/xlink">
    <!-- Generator: Sketch 41.2 (35397) - http://www.bohemiancoding.com/sketch -->
    <title>wine-glasses</title>
    <desc>Created with Sketch.</desc>
    <defs></defs>
    <g id="Page-1" stroke="none" stroke-width="1" fill="none" fill-rule="evenodd">
        <g id="Custom-Preset" transform="translate(-641.000000, -865.000000)" fill="#515151">
            <g id="wine-glasses" transform="translate(641.000000, 865.000000)">
                <g id="Capa_1">
                    <g id="Group">
                        <path d="M6.96180418,36.6695786 C6.13312794,40.8365 8.784,44.9217452 12.9398042,45.8200238 C17.1389295,46.7329786 21.2936188,44.0534571 22.2008146,39.8476119 L23.4789478,28.1069786 C19.2798225,25.8246714 20.8185196,35.2844333 13.5655718,33.7166333 C8.58395822,32.6366571 7.22603133,35.8293667 6.96180418,36.6695786 Z" id="Shape"></path>
                        <path d="M60.8873969,50.7671762 C60.5589843,49.781 59.4910862,49.2360667 58.5083969,49.5720238 L53.2773681,51.3140238 L49.9876684,41.4036071 C52.6896658,40.0754119 54.9046188,37.9604452 56.2767206,35.2158381 C57.9353473,31.9004548 58.2045117,28.13665 56.9773446,24.4632952 L48.3830339,4.5666881 L25.5303316,12.1826738 L27.0566057,18.4042619 L7.52529765,14.1751262 L1.08478068,35.044031 C0.302929504,38.6698476 0.976318538,42.3826048 2.98310705,45.4987429 C4.64173368,48.0774452 7.07217755,49.9398857 9.90143081,50.9657833 L7.69683029,61.174031 L2.31672585,60.0112619 C1.30473107,59.807231 0.300221932,60.4378286 0.0805900783,61.4567071 C-0.139201044,62.4746286 0.50583812,63.4759595 1.52308877,63.696581 L8.72538903,65.2551286 C8.73064491,65.2551286 8.73335248,65.2597548 8.73701567,65.2597548 C8.74513838,65.2623071 8.75469452,65.2597548 8.7629765,65.2623071 L15.9675065,66.8208548 C16.102248,66.8502071 16.2344413,66.862969 16.3671123,66.862969 C17.2338538,66.862969 18.0133159,66.2594905 18.2039608,65.3758881 C18.4221593,64.3573286 17.7779164,63.3563167 16.7606658,63.1353762 L11.3767389,61.9694167 L13.573376,51.8031238 C13.9339608,51.8324762 14.2939086,51.8623071 14.6546527,51.8623071 C21.1216084,51.8623071 26.8105352,47.2586095 28.2038198,40.7655119 L29.7308903,29.3010143 L30.7334883,33.3843452 C32.6198695,39.0675405 37.902342,42.8859024 43.8765196,42.8859024 C44.7345013,42.8859024 45.5837232,42.782531 46.4246632,42.6233262 L49.7056031,52.5050286 L44.4847676,54.2430405 C43.497141,54.5713405 42.962953,55.6388738 43.2907285,56.62505 C43.5536815,57.4154905 44.288389,57.9162357 45.0769295,57.9162357 C45.2731488,57.9162357 45.4744648,57.8865643 45.6708433,57.8198833 L59.6933577,53.1504619 C60.6816214,52.8210452 61.2158094,51.7533524 60.8873969,50.7671762 Z M24.5003394,40.1196 C23.354718,45.4470571 17.8731593,49.0227833 12.5011775,47.8590571 L12.5011775,47.8590571 L12.4981514,47.8590571 C9.86177285,47.2898762 7.60572846,45.7270214 6.14539164,43.4571571 C4.68553264,41.1871333 4.19291384,38.4828857 4.72184595,35.9997381 L10.1013133,18.5896286 L26.8767911,22.2223048 L24.5003394,40.1196 Z M34.347141,32.3397833 L30.0132742,14.6611952 L46.3009112,9.23403571 L53.4645091,25.8068048 C54.3169164,28.3709905 54.1178303,31.1132048 52.9132794,33.5277571 C51.704906,35.94215 49.6307467,37.7423762 47.0693838,38.5937548 C46.0341358,38.9423143 44.9582742,39.1163548 43.8774752,39.1163548 C39.5259295,39.1163548 35.6802219,36.3358548 34.347141,32.3397833 Z" id="Shape"></path>
                        <path d="M51.3742637,26.8701905 C51.0117676,26.0652333 49.3260653,23.0357167 44.489705,24.6454714 C37.4431697,26.9928643 37.952671,17.4204786 34.0286031,20.1429119 L36.5614569,31.6721762 C37.9187467,35.7531143 42.3387781,37.97225 46.4101697,36.6132667 C50.4479556,35.2672048 52.6434778,30.9192238 51.3742637,26.8701905 Z" id="Shape"></path>
                        <path d="M18.9509321,4.26151905 C20.1225144,4.19786905 21.0239765,3.19302857 20.960906,2.01781667 C20.8976762,0.840690476 19.8926893,-0.0606190476 18.7212663,0.00319047619 C17.5447467,0.0668404762 16.6434439,1.07168095 16.7073107,2.24832857 C16.7714961,3.42385952 17.7761645,4.32516905 18.9509321,4.26151905 Z" id="Shape"></path>
                        <path d="M27.1786057,7.98528333 C28.3495509,7.92163333 29.2516501,6.91679286 29.1879426,5.74030476 C29.1240757,4.56477381 28.119248,3.66298571 26.9483029,3.72663571 C25.7724204,3.79060476 24.8709582,4.79512619 24.934188,5.97049762 C24.9977363,7.14698571 26.0022454,8.04909286 27.1786057,7.98528333 Z" id="Shape"></path>
                        <path d="M17.7656527,9.7753 C17.8290418,10.9521071 18.8337102,11.8538952 20.0051332,11.7897667 C21.1816527,11.7262762 22.0831149,10.7214357 22.0197258,9.54494762 C21.9556997,8.36957619 20.9508721,7.4677881 19.774671,7.5314381 C18.6035666,7.5950881 17.7025822,8.59992857 17.7656527,9.7753 Z" id="Shape"></path>
                    </g>
                </g>
            </g>
        </g>
    </g>
</svg>