<?xml version="1.0" encoding="UTF-8"?>
<svg width="52px" height="41px" viewBox="0 0 52 41" version="1.1" xmlns="http://www.w3.org/2000/svg" xmlns:xlink="http://www.w3.org/1999/xlink">
    <!-- Generator: Sketch 41.2 (35397) - http://www.bohemiancoding.com/sketch -->
    <title>frame-landscape</title>
    <desc>Created with Sketch.</desc>
    <defs></defs>
    <g id="Page-1" stroke="none" stroke-width="1" fill="none" fill-rule="evenodd">
        <g id="Custom-Preset" transform="translate(-975.000000, -878.000000)" fill="#6E6E6E">
            <g id="frame-landscape" transform="translate(975.000000, 878.000000)">
                <g id="Capa_1">
                    <g id="Group">
                        <path d="M51.1081013,0.054284 L0.82278481,0.054284 C0.368443038,0.054284 0,0.421316 0,0.874284 L0,40.056836 C0,40.509804 0.368443038,40.876836 0.82278481,40.876836 L51.1081013,40.876836 C51.5627722,40.876836 51.9308861,40.509804 51.9308861,40.056836 L51.9308861,0.874284 C51.9308861,0.421316 51.5627722,0.054284 51.1081013,0.054284 Z M46.9941772,34.339304 L35.6782532,22.660208 C35.5531899,22.531468 35.3486456,22.523104 35.2137089,22.641512 L27.3651646,29.526068 L17.333443,17.216064 C17.2682785,17.135704 17.173,17.089784 17.0652152,17.09208 C16.9613797,17.094212 16.8644557,17.143904 16.8024177,17.226888 L4.93670886,33.094708 L4.93670886,4.974284 L46.9941772,4.974284 L46.9941772,34.339304 L46.9941772,34.339304 Z" id="Shape"></path>
                        <path d="M34.5666709,16.81902 C36.794443,16.81902 38.6030886,15.017972 38.6030886,12.795936 C38.6030886,10.574556 36.794443,8.772524 34.5666709,8.772524 C32.3370886,8.772524 30.5304177,10.574556 30.5304177,12.795936 C30.5304177,15.017808 32.3372532,16.81902 34.5666709,16.81902 Z" id="Shape"></path>
                    </g>
                </g>
            </g>
        </g>
    </g>
</svg>