<?xml version="1.0" encoding="UTF-8"?>
<svg width="57px" height="52px" viewBox="0 0 57 52" version="1.1" xmlns="http://www.w3.org/2000/svg" xmlns:xlink="http://www.w3.org/1999/xlink">
    <!-- Generator: Sketch 41.2 (35397) - http://www.bohemiancoding.com/sketch -->
    <title>running</title>
    <desc>Created with Sketch.</desc>
    <defs></defs>
    <g id="Page-1" stroke="none" stroke-width="1" fill="none" fill-rule="evenodd">
        <g id="Custom-Preset" transform="translate(-316.000000, -872.000000)" fill="#515151">
            <g id="running" transform="translate(316.000000, 872.000000)">
                <g id="Capa_1">
                    <path d="M13.4707031,5.07725322 L5.00976563,5.07725322 C4.08674414,5.07725322 3.33984375,5.825897 3.33984375,6.75107296 C3.33984375,7.67624893 4.08674414,8.4248927 5.00976563,8.4248927 L13.4707031,8.4248927 C14.3937246,8.4248927 15.140625,7.67624893 15.140625,6.75107296 C15.140625,5.825897 14.3937246,5.07725322 13.4707031,5.07725322 Z" id="Shape"></path>
                    <path d="M13.4707031,18.4678112 L5.00976563,18.4678112 C4.08674414,18.4678112 3.33984375,19.2164549 3.33984375,20.1416309 C3.33984375,21.0668069 4.08674414,21.8154506 5.00976563,21.8154506 L13.4707031,21.8154506 C14.3937246,21.8154506 15.140625,21.0668069 15.140625,20.1416309 C15.140625,19.2164549 14.3937246,18.4678112 13.4707031,18.4678112 Z" id="Shape"></path>
                    <path d="M10.1308594,11.7725322 L1.66992188,11.7725322 C0.746900391,11.7725322 0,12.521176 0,13.4463519 C0,14.3715279 0.746900391,15.1201717 1.66992188,15.1201717 L10.1308594,15.1201717 C11.0538809,15.1201717 11.8007812,14.3715279 11.8007812,13.4463519 C11.8007812,12.521176 11.0538809,11.7725322 10.1308594,11.7725322 Z" id="Shape"></path>
                    <path d="M53.6601562,20.1416309 L43.5292969,20.1416309 L43.5292969,13.4463519 C43.5292969,10.5064549 39.9413027,8.95850644 37.8270703,11.0804635 L24.4686973,24.4700172 C23.164043,25.7777167 23.164043,27.896103 24.4686973,29.2038026 L32.1268477,36.8798283 L22.7987754,46.2296738 C21.4941211,47.5373734 21.4941211,49.6557597 22.7987754,50.9634592 C24.1033184,52.2710472 26.2168828,52.2711588 27.5215371,50.9634592 L39.2109902,39.246721 C40.5156445,37.9390215 40.5156445,35.8206352 39.2109902,34.5129356 L31.5528398,26.8369099 L36.8496094,21.5277768 L36.8496094,23.4892704 C36.8496094,25.3379485 38.3450801,26.8369099 40.1894531,26.8369099 L53.6601562,26.8369099 C55.5045293,26.8369099 57,25.3379485 57,23.4892704 C57,21.6405923 55.5045293,20.1416309 53.6601562,20.1416309 Z" id="Shape"></path>
                    <path d="M31.1874609,3.12892704 C29.8599844,2.24459227 28.0987734,2.41956223 26.9734687,3.54738197 L17.7888984,12.7533906 C16.4842441,14.0610901 16.4842441,16.1794764 17.7888984,17.487176 C19.0935527,18.7948755 21.2071172,18.7947639 22.5117715,17.4870644 L29.7605684,10.2213476 L32.2024395,11.9844378 L35.4650215,8.71424034 C36.010752,8.16723605 36.6544512,7.74264378 37.3583789,7.41111588 L31.1874609,3.12892704 Z" id="Shape"></path>
                    <path d="M22.1073164,31.5706953 C21.2611113,30.722515 20.6962324,29.6786094 20.3984297,28.5497854 L2.75971289,46.2296738 C1.45505859,47.5373734 1.45505859,49.6557597 2.75971289,50.9634592 C4.06425586,52.2710472 6.17782031,52.2711588 7.48247461,50.9634592 L24.4686973,33.937588 L22.1073164,31.5706953 Z" id="Shape"></path>
                    <ellipse id="Oval" cx="45.1992188" cy="5.07725322" rx="5.00976563" ry="5.02145923"></ellipse>
                </g>
            </g>
        </g>
    </g>
</svg>