<?xml version="1.0" encoding="utf-8"?>
<!-- Generator: Adobe Illustrator 22.1.0, SVG Export Plug-In . SVG Version: 6.00 Build 0)  -->
<svg version="1.1" id="Capa_1" xmlns="http://www.w3.org/2000/svg" xmlns:xlink="http://www.w3.org/1999/xlink" x="0px" y="0px"
	 viewBox="0 0 512 448.6" style="enable-background:new 0 0 512 448.6;" xml:space="preserve">
<style type="text/css">
	.st0{display:none;fill:#606060;}
	.st1{fill:#FFFFFF;}
	.st2{fill:#E27A7A;}
	.st3{font-family:'MyriadPro-Regular';}
	.st4{font-size:206.1702px;}
</style>
<rect x="-20" y="-24" class="st0" width="606" height="499"/>
<title>shopping-basket-alert</title>
<g id="shopping-basket">
	<path class="st1" d="M380.5,164.4L277.1,9.4C272.4,4.7,265.4,0,258.4,0s-14.1,2.3-18.8,9.4l-103.3,155H23.5
		C9.4,164.4,0,173.8,0,187.9v7l58.7,218.5c4.7,18.8,23.5,35.2,44.6,35.2h305.3c21.1,0,39.9-14.1,44.6-35.2L512,194.9v-7
		c0-14.1-9.4-23.5-23.5-23.5H380.5z M187.9,164.4l70.5-103.3l70.5,103.3H187.9z M258.4,352.3c-26,0-47-21-47-47s21-47,47-47
		s47,21,47,47l0,0C305.3,331.2,284.3,352.2,258.4,352.3z"/>
</g>
<g>
	<circle class="st2" cx="393.1" cy="123.2" r="118.9"/>
	<text transform="matrix(1.3 0 0 1 360.6387 191.457)" class="st1 st3 st4">!</text>
</g>
</svg>
